<svg width="365" height="392" viewBox="0 0 365 392" fill="none" xmlns="http://www.w3.org/2000/svg">
<path d="M86.8158 158.044L74.3158 152.044L70.8158 171.544L77.8158 199.044L82.8158 214.044L91.3158 220.544L100.316 214.044V234.044L116.316 255.044V271.044L107.816 278.544V302.044L70.8158 315.044L25.8158 340.544L0.815796 390.544L363.816 384.544V313.544L348.316 302.044L306.816 283.044L249.316 273.044L243.316 262.544L234.816 248.544L227.816 246.544L226.316 232.044V265.044L215.816 288.544L198.316 302.044L169.316 317.544L137.7 313.544L119.316 302.044L120.816 288.544L117.816 273.044V259.544L139.066 276.044H163.316L185.816 271.044L205.316 255.044L226.316 224.044L228.816 210.044L238.816 211.544L243.816 202.544L252.816 180.044L256.316 156.544L248.816 145.044L235.816 152.044L228.816 189.044L212.316 206.044L201.816 212.544L195.602 203.544L190.816 200.24L179.816 195.28L167.083 189.044M86.8158 158.044L79.8158 140.544L74.3158 117.544L70.8158 94.0444L64.3158 91.5444L70.8158 50.5444L88.3158 28.5444L105.816 15.0444L121.816 13.0444L137.816 5.04437H153.816L163.316 0.544373L200.316 15.0444L213.316 17.0444L245.316 46.5444V79.5444L252.816 86.0444L254.316 99.0444L248.816 125.044L238.816 148.544H234.816L230.316 122.044L215.816 71.5444M86.8158 158.044L89.3158 142.544L92.5196 122.544L89.3158 97.5444L97.8158 79.5444L128.316 59.0444L142.816 54.5444H158.316L168.816 52.0444L187.316 56.0444L215.816 71.5444M217.316 128.044L228.306 115.044L223.281 97.5444L215.816 71.5444M217.316 128.044L212.816 120.044L202.816 113.044L176.816 115.044V125.044L200.316 122.044H210.816L217.316 128.044ZM217.316 128.044L210.816 134.544L202.816 129.544H190.316M190.316 129.544L176.816 132.044L170.816 141.544L187.316 145.044H200.316L208.316 138.044L202.816 148.544H187.316L174.316 145.044H165.816L170.816 160.544L175.816 168.044L178.816 174.544L179.816 180.544L176.316 183.544L171.816 182.544L170.816 181.544L168.816 178.044L165.816 177.044L162.316 178.044L160.316 182.544L155.816 184.499L150.816 184.044L147.316 179.044H141.316L139.066 185.522M190.316 129.544L186.816 133.044L185.316 139.044L187.316 142.044L190.816 143.544L193.816 142.044L196.316 138.544L195.316 132.044L190.316 132.544L187.316 138.044L190.316 141.295L193.316 139.044V134.044L190.316 136.544V138.544M135.316 133.744L129.816 136.044H120.816L110.316 142.544L103.316 150.544H110.816H127.316L136.816 148.544L144.316 138.044L142.816 150.544L142.048 152.044L137.7 160.544L133.095 169.544M135.316 133.744L134.816 132.044L127.316 128.044L113.316 129.544L97.8158 134.544L92.5196 140.544L95.3158 129.544L97.8158 125.044L113.316 119.544H134.816V128.044L135.316 133.744ZM133.095 169.544L131.816 172.044V175.544M133.095 169.544L131.816 175.544M131.816 175.544L133.095 181.044L135.316 184.499L139.066 185.522M139.066 185.522L142.816 189.044L142.048 194.544L125.816 200.544L117.816 217.544L100.816 215.044L113.316 220.544L120.816 238.044L135.316 248.044H147.316L150.316 234.044L151.316 224.044L145.066 219.794L139.066 217.419L131.816 213.711L126.816 211.544V211.044M126.816 211.044L129.316 208.044L133.095 206.044L137.7 203.544L144.316 202.044L151.316 203.544L155.816 205.044L160.316 203.544L165.816 202.044L174.316 203.544L185.816 208.044L191.816 210.044L175.316 211.544L164.816 210.044H147.316H134.816L126.816 211.044ZM126.816 211.044L134.316 215.044L141.316 218.544L148.816 221.044L157.316 220.544L160.816 222.211L168.316 221.544M175.316 220.544L182.316 217.544L190.316 212.544L175.316 220.544ZM175.316 220.544L168.316 221.544M168.316 221.544L163.316 224.044L164.816 234.044L170.816 245.044L187.316 238.044L200.316 226.044L198.316 221.544L193.316 211.544L199.316 216.544L201.316 213.044L194.816 202.044L167.083 189.044M167.083 189.044L163.316 185.044L162.316 180.044L161.816 179.544M120.816 136.544L117.816 141.044V145.544L119.316 149.044L122.816 149.544L127.316 146.544L127.816 143.044L125.316 138.544L120.816 140.044L119.316 144.544L121.816 147.544L125.316 144.544L123.816 141.044L121.816 142.544" stroke="black"/>
</svg>
