<svg width="365" height="392" viewBox="0 0 365 392" fill="none" xmlns="http://www.w3.org/2000/svg">
<path d="M142.048 152.044L142.816 150.544L144.316 138.044L136.816 148.544L127.316 150.544H110.816H103.316L110.316 142.544L120.816 136.044H129.816L137.316 140.544L134.816 132.044L127.316 128.044L113.316 129.544L97.8158 134.544L92.5196 140.544L97.8158 125.044L113.316 119.544H134.816V128.044L138.816 138.044L140.316 148.544L142.048 152.044ZM142.048 152.044L137.7 160.544L133.095 169.544M133.095 169.544L131.816 172.044V175.544M133.095 169.544L131.816 175.544M131.816 175.544V183.544L135.316 184.499L139.066 185.522M139.066 185.522L142.816 186.544L147.316 183.544L155.816 188.044L158.816 182.044L171.316 188.044L179.316 182.044L178.816 174.544L175.816 168.044L170.816 160.544L165.816 145.044H174.316L187.316 148.544H202.816L208.316 138.044L200.316 145.044H187.316L170.816 141.544L176.816 132.044L190.316 129.544H202.816L210.816 134.544L217.316 128.044L210.816 122.044H200.316L176.816 125.044V115.044L202.816 113.044L218.316 119.544L220.816 129.544L226.316 115.044L238.816 148.544L256.316 105.044L248.816 83.5444L245.316 46.5444L213.316 17.0444L200.316 15.0444L163.316 0.544373L153.816 5.04437H137.816L121.816 13.0444L105.816 15.0444L88.3158 28.5444L70.8158 50.5444L64.3158 91.5444L91.3158 163.044L77.8158 155.544L70.8158 171.544L77.8158 199.044L82.8158 214.044L91.3158 220.544L100.316 214.044V234.044L116.316 255.044V271.044L107.816 278.544V302.044L70.8158 315.044L25.8158 340.544L0.815796 390.544L363.816 384.544V313.544L348.316 302.044L306.816 283.044L249.316 273.044L243.316 262.544L234.816 248.544L227.816 246.544L226.316 232.044V265.044L215.816 288.544L198.316 302.044L169.316 317.544L137.7 313.544L119.316 302.044L120.816 288.544L117.816 273.044V259.544L139.066 276.044H163.316L185.816 271.044L205.316 255.044L226.316 224.044L228.816 210.044L238.816 211.544L243.816 202.544L252.816 180.044L256.316 156.544L248.816 145.044L235.816 152.044L228.816 189.044L212.316 206.044L201.816 212.544L200.316 205.044L191.816 198.044L180.316 193.044L161.316 187.544L169.316 190.544L194.816 202.044L200.316 212.544L198.316 221.544L200.316 226.044L187.316 238.044L170.816 245.044L164.816 234.044L161.816 226.044L163.316 222.211M139.066 185.522L142.816 189.044L142.048 194.544L125.816 200.544L117.816 217.544H103.316L113.316 220.544L120.816 238.044L135.316 248.044H147.316L150.316 234.044L151.316 226.044L141.316 222.544L135.316 219.544L127.816 215.044H124.316L125.816 211.544L129.316 208.044L133.095 205.044L139.066 202.544L147.816 202.044L151.316 203.544L155.816 205.044L159.816 202.044H164.816L174.316 203.544L185.816 208.044L191.816 210.044L179.316 211.544H167.316L151.316 212.544L140.316 214.044L127.816 212.544L134.316 217.544L142.816 221.544L155.816 222.544H161.816L163.316 222.211M170.816 220.544L175.316 219.544L190.816 212.544L170.816 220.544ZM170.816 220.544L163.316 222.211" stroke="black"/>
</svg>
